<?xml version="1.0" encoding="utf-8"?>
<!-- Generator: Adobe Illustrator 21.0.2, SVG Export Plug-In . SVG Version: 6.00 Build 0)  -->
<svg version="1.1" id="Layer_1" xmlns="http://www.w3.org/2000/svg" xmlns:xlink="http://www.w3.org/1999/xlink" x="0px" y="0px"
	 width="481.3px" height="448px" viewBox="0 0 481.3 448" enable-background="new 0 0 481.3 448" xml:space="preserve">
<path opacity="0.1" d="M395.6,240l7.7,16.9c0.4,1,1.3,1.6,2.3,1.7l17.3,1.1c2.5,0.2,3.5,3.6,1.7,5.8l-12.5,15
	c-0.7,0.9-1.1,2.1-0.9,3.2l3,19.2c0.4,2.8-2.2,5.2-4.5,4.1l-15.5-7.7c-0.9-0.4-2-0.3-2.9,0.3L376,310.3c-2.3,1.6-4.9-0.3-4.5-3.2
	l3-19.8c0.2-1.1-0.2-2.3-0.9-3l-12.5-12.5c-1.8-1.8-0.8-5.4,1.7-6.1l17.3-4.6c1-0.3,1.9-1.1,2.3-2.1l7.7-18.5
	C391.2,237.9,394.5,237.6,395.6,240z"/>
<linearGradient id="SVGID_1_" gradientUnits="userSpaceOnUse" x1="6.947" y1="276.4256" x2="475.5796" y2="276.4256">
	<stop  offset="0" style="stop-color:#8F939A"/>
	<stop  offset="3.994265e-02" style="stop-color:#9EA3A8"/>
	<stop  offset="0.1564" style="stop-color:#A9ADB4"/>
	<stop  offset="0.2439" style="stop-color:#B6BBC1"/>
	<stop  offset="0.3346" style="stop-color:#B3B8BE"/>
	<stop  offset="0.4456" style="stop-color:#9EA3A8"/>
	<stop  offset="0.5296" style="stop-color:#9EA3A8"/>
	<stop  offset="0.6431" style="stop-color:#BCC1C8"/>
	<stop  offset="0.7617" style="stop-color:#B5BAC1"/>
	<stop  offset="0.8383" style="stop-color:#9DA2AA"/>
	<stop  offset="0.9118" style="stop-color:#82878F"/>
	<stop  offset="0.9352" style="stop-color:#7F848C"/>
	<stop  offset="1" style="stop-color:#8F9299"/>
</linearGradient>
<path fill="url(#SVGID_1_)" d="M397.4,241.8l7.7,16.9c0.4,1,1.3,1.6,2.3,1.7l17.3,1.1c2.5,0.2,3.5,3.6,1.7,5.8l-12.5,15
	c-0.7,0.9-1.1,2.1-0.9,3.2l3,19.2c0.4,2.8-2.2,5.2-4.5,4.1l-15.5-7.7c-0.9-0.4-2-0.3-2.9,0.3l-15.5,10.7c-2.3,1.6-4.9-0.3-4.5-3.2
	l3-19.8c0.2-1.1-0.2-2.3-0.9-3l-12.5-12.5c-1.8-1.8-0.8-5.4,1.7-6.1l17.3-4.6c1-0.3,1.9-1.1,2.3-2.1l7.7-18.5
	C393,239.7,396.3,239.4,397.4,241.8z"/>
</svg>
